<svg width="262.92998046875px" height="122.021240234375px" xmlns="http://www.w3.org/2000/svg" viewBox="118.535009765625 13.9893798828125 262.92998046875 122.021240234375" style="background: rgba(0, 0, 0, 0);" preserveAspectRatio="xMidYMid"><defs><filter id="editing-offset"><feFlood flood-color="#f00" flood-opacity="0.5" result="c1"></feFlood><feFlood flood-color="#0f0" flood-opacity="0.5" result="c2"></feFlood><feFlood flood-color="#0000ff" flood-opacity="0.5" result="c3"></feFlood><feComposite operator="in" in="c1" in2="SourceAlpha" result="text-c1"></feComposite><feComposite operator="in" in="c2" in2="SourceAlpha" result="text-c2"></feComposite><feComposite operator="in" in="c3" in2="SourceAlpha" result="text-c3"></feComposite><feOffset in="text-c1" dx="-10" dy="0" result="text1"></feOffset><feOffset in="text-c2" dx="10" dy="0" result="text2"></feOffset><feOffset in="text-c3" dx="0" dy="0" result="text3"></feOffset><feMerge><feMergeNode in="text1"></feMergeNode><feMergeNode in="text2"></feMergeNode><feMergeNode in="text3"></feMergeNode></feMerge></filter></defs><g filter="url(#editing-offset)"><g transform="translate(162.05937680602074, 97.42218780517578)"><path d="M14.34 0L0.38 0L8.51-42.24L22.59-42.24L14.34 0ZM24.96-15.62L24.96-15.62L24.96-15.62Q24.96-27.71 31.23-35.33L31.23-35.33L31.23-35.33Q37.89-43.58 49.47-43.58L49.47-43.58L49.47-43.58Q57.86-43.58 62.08-39.52L62.08-39.52L62.08-39.52Q66.30-35.46 66.30-26.88L66.30-26.88L66.30-26.88Q66.30-13.82 59.65-6.21L59.65-6.21L59.65-6.21Q53.06 1.28 41.98 1.28L41.98 1.28L41.98 1.28Q33.34 1.28 29.15-3.04L29.15-3.04L29.15-3.04Q24.96-7.36 24.96-15.62ZM41.79-28.86L41.79-28.86L41.79-28.86Q38.91-17.34 38.91-8.26L38.91-8.26L38.91-8.26Q38.91-6.08 39.65-4.67L39.65-4.67L39.65-4.67Q40.38-3.26 42.34-3.26L42.34-3.26L42.34-3.26Q44.29-3.26 45.50-4.19L45.50-4.19L45.50-4.19Q46.72-5.12 47.68-7.23L47.68-7.23L47.68-7.23Q49.22-10.69 50.66-18.02L50.66-18.02L50.66-18.02Q52.10-25.34 52.22-28.38L52.22-28.38L52.22-28.38Q52.35-31.42 52.35-33.73L52.35-33.73L52.35-33.73Q52.35-36.03 51.65-37.50L51.65-37.50L51.65-37.50Q50.94-38.98 49.06-38.98L49.06-38.98L49.06-38.98Q47.17-38.98 45.89-37.82L45.89-37.82L45.89-37.82Q43.52-35.65 41.79-28.86ZM76.03 0L68.99 0L76.67-42.24L90.43-42.24L100.42-13.18L105.73-42.24L112.83-42.18L105.02 0L90.37 0L81.15-27.97L76.03 0ZM127.68 0L113.73 0L121.86-42.24L135.94-42.24L127.68 0ZM170.75-13.25L170.75-13.25L170.75-13.25Q172.42-12.03 172.42-9.44L172.42-9.44L172.42-9.44Q172.42-6.85 171.30-5.02L171.30-5.02L171.30-5.02Q170.18-3.20 168-1.79L168-1.79L168-1.79Q163.33 1.22 155.17 1.22L155.17 1.22L155.17 1.22Q147.01 1.22 142.56-3.04L142.56-3.04L142.56-3.04Q138.11-7.30 138.11-14.85L138.11-14.85L138.11-14.85Q138.11-25.54 143.68-33.66L143.68-33.66L143.68-33.66Q147.90-39.68 155.46-42.24L155.46-42.24L155.46-42.24Q159.36-43.52 163.20-43.52L163.20-43.52L163.20-43.52Q167.04-43.52 169.41-43.01L169.41-43.01L169.41-43.01Q171.78-42.50 173.57-41.47L173.57-41.47L173.57-41.47Q177.47-39.23 177.47-35.65L177.47-35.65L177.47-35.65Q177.47-32.38 174.40-29.95L174.40-29.95L174.40-29.95Q171.58-27.78 169.28-27.78L169.28-27.78L169.28-27.78Q166.98-27.78 166.02-28.10L166.02-28.10L166.02-28.10Q166.27-30.40 166.27-31.90L166.27-31.90L166.27-31.90Q166.27-33.41 166.21-34.50L166.21-34.50L166.21-34.50Q166.14-35.58 165.82-36.61L165.82-36.61L165.82-36.61Q165.18-38.98 163.23-38.98L163.23-38.98L163.23-38.98Q161.28-38.98 159.33-37.15L159.33-37.15L159.33-37.15Q157.38-35.33 155.71-32.26L155.71-32.26L155.71-32.26Q151.94-25.28 151.94-17.02L151.94-17.02L151.94-17.02Q151.94-13.06 154.18-10.78L154.18-10.78L154.18-10.78Q156.42-8.51 161.22-8.51L161.22-8.51L161.22-8.51Q164.80-8.51 168.19-10.88L168.19-10.88L168.19-10.88Q169.66-11.90 170.75-13.25Z"></path></g></g><style>text {
  font-size: 64px;
  font-family: Arial Black;
  dominant-baseline: central;
  text-anchor: middle;
}</style></svg>