<?xml version="1.0" encoding="utf-8"?>
<svg version="1.1" id="Layer_1" xmlns="http://www.w3.org/2000/svg" xmlns:xlink="http://www.w3.org/1999/xlink" x="0px" y="0px"
	 viewBox="0 0 1086.127 1651.505" enable-background="new 0 0 1086.127 1651.505" xml:space="preserve">
<g>
	<path id="path9392_1_" d="M804.227,687.918c4.385-55.847-47.096-105.449-115.102-110.816
		c-67.975-5.389-126.687,35.422-131.103,91.22c-4.421,55.834,47.089,105.363,115.097,110.765
		C741.097,784.51,799.771,743.668,804.227,687.918z M560.582,710.841c0,0-42.476-153.665,155.127-171.617
		c214.908-19.684,498.852,400.417-199.424,819.009c0,0,435.799-162.358,540.241-556.922
		c117.528-444.055-624.982-426.206-495.953-90.473" fill="#F2308B"/>
	<path d="M379.504,407.909c7.549-111.888,11.343-199.423,6.767-233.481C355.951-78.866,53.12,41.167,68.5,169.646
		c6.556,50.649,23.688,75.216,42.437,88.19c18.382,12.717,40.784,21.206,64.534,18.363c42.141-5.045,72.207-43.732,67.105-86.349
		c-5.1-42.607-43.448-73.105-85.589-68.06c-2.597,0.311-5.147,0.753-7.648,1.312c-1.111-2.399-1.055-2.909-1.055-2.909
		c-11.161-95.274,193.721-107.526,211.85,49.615c4.717,38.851,2.298,124.574-3.656,233.52c-26.017-3.948-54.734-4.501-86.274-0.899
		C65.031,425.119,0.87,622.715,20.212,769.339c19.168,160.124,162.447,266.555,287.307,372.233
		c-5.503,103.243-7.711,184.991-3.488,224.729c13.261,130.232,99.26,267.682,157.804,259.067
		c46.338-7.154,76.957-121.828,60.41-258.018c-21.192-189.941-101.539-284.509-189.016-354.707
		c3.622-53.378,8.001-111.423,12.692-171.33c15.206,2.11,30.882,2.456,46.792,0.719C597.742,815.85,612.591,465.034,379.504,407.909
		z M325.107,1265.302c-2.178-22.701-1.935-60.548-0.023-108.754c88.176,75.911,163.383,152.724,172.846,250.037
		C515.946,1557.094,357.638,1507.16,325.107,1265.302z M272.844,424.444c31.119-3.507,58.449-1.887,82.254,3.633
		c-5.534,96.184-13.458,208.127-21.516,320.986c-87.227-11.234-159.799-127.37-54.828-245.266
		c-181.924,111.015-93.215,299.895,48.501,333.979c-3.91,55.132-7.708,109.542-11.125,161.483
		c-110.811-84.611-227.556-138-247.06-300.936C45.777,503.751,195.098,433.751,272.844,424.444z M363.623,748.7
		c-3.478,0.549-6.955,0.898-10.435,1.091c8.749-109.174,17.764-219.599,24.461-314.993
		C530.731,492.044,505.065,731.773,363.623,748.7z" fill="#F2308B"/>
</g>
</svg>
